# xmcd CD database file
#
# Track frame offsets:
#	150
#	13322
#	31358
#	50414
#	65904
#	79531
#	94741
#	110584
#	127116
#	142868
#	158261
#	171586
#	187225
#	200986
#	215992
#	232324
#	246347
#	260958
#	276907
#	291683
#	308339
#	324838
#
# Disc length: 4531 seconds
#
# Revision: 0
# Processed by: cddbd v1.5.2PL0 Copyright (c) Steve Scherf et al.
# Submitted via: CDex 1.70beta2
#
DISCID=6511b116
DTITLE=Various Artist - NU COUNTRY TRAXX 168
DYEAR=2013
DGENRE=Country
TTITLE0=1994 - Jason Aldean
TTITLE1=Beat This Summer - Brad Paisley
TTITLE2=Highway Don't Care [Radio Edit] - Tim McGraw with Taylor Swift ft. Keith Urban
TTITLE3=Done. - The Band Perry
TTITLE4=Point At You - Justin Moore
TTITLE5=Hey Girl - Billy Currington 
TTITLE6=Up All Night - Jon Pardi
TTITLE7=Easy - Sheryl Crow
TTITLE8=Dance Baby Dance - Chris Cagle
TTITLE9=Hush Hush - Pistol Annies
TTITLE10=Blowin' Smoke - Kacey Musgraves
TTITLE11=Last Train To Memphis - Jared Ashley
TTITLE12=Something You Can't Live Without - Wynonna
TTITLE13=The Simple Life - Drake White
TTITLE14=Thank A Farmer - James Wesley
TTITLE15=Better Beer - Erica Nicole
TTITLE16=I Won't Ask - Lisa Matassa
TTITLE17=The Good Life - Casey James
TTITLE18=Five Days - Rachel Holder
TTITLE19=Is It Just Me - Michelle Cupit
TTITLE20=Summertime Song - Mike Aiken
TTITLE21=How Country Is That - Dave Russell
EXTD=YEAR: 2013
EXTT0=
EXTT1=
EXTT2=
EXTT3=
EXTT4=
EXTT5=
EXTT6=
EXTT7=
EXTT8=
EXTT9=
EXTT10=
EXTT11=
EXTT12=
EXTT13=
EXTT14=
EXTT15=
EXTT16=
EXTT17=
EXTT18=
EXTT19=
EXTT20=
EXTT21=
PLAYORDER=
